<svg xmlns="http://www.w3.org/2000/svg" viewBox="0 0 750 500"><g id="freepik--character-3--inject-35"><path d="M398,123.71c-2.21-2.41,4.42-5,3.82-13.87S388.17,94,388.17,94a17.48,17.48,0,0,0-13.55-3.2A17.47,17.47,0,0,0,361.07,94s-13.07,7-13.68,15.88,6,11.46,3.82,13.87-11.66,5-10.45,11.67,8.84,5.83,8.44,8.44-2.41,4.83-3.42,3-2.81,1.41-1.2,5,10.86,7.23,19.3,6.63c6.42-.46,9.47-2.19,10.74-3.62,1.27,1.43,4.31,3.16,10.73,3.62,8.45.6,17.7-3,19.3-6.63s-.2-6.84-1.2-5-3-.4-3.42-3,7.24-1.81,8.45-8.44S400.23,126.13,398,123.71Z" style="fill:#263238;stroke:#263238;stroke-linecap:round;stroke-linejoin:round"></path><path d="M457.92,273.13c-2.89-3.67-6.75-12.55-7.53-14.29s-9.46-24.71-11.39-29.92-9.65-19.89-10.23-21.63-6-15.63-6.37-17-1-10.43-3.47-19.12-11.89-13.9-17.49-16-15.8-6.58-16.63-12-1.31-9-1.31-9l-13.26,1-6.24-1s-.49,3.61-1.31,9-6.89,9.87-12.49,12-19.11,7.34-21.62,16-3.09,17.76-3.48,19.12-5.79,15.25-6.37,17-8.3,16.41-10.23,21.63-10.62,28.18-11.39,29.92-4.63,10.62-7.53,14.29,1.16,2.89,3.67,1.73,8.3-9.65,8.3-9.65-3.67,5.79-2.51,6.37,3.09-1.74,4.63-4.05,3.09-3.48,4.06-7.15-.39-6.56.77-8.68,17.18-18.92,19.88-23.75,4.25-6.18,4.25-6.18l.77,6.18s-5.6,12.16-3.66,29.73,16.6,38.61,16.79,39.38a64,64,0,0,1,.19,16c-1,7-3.08,12.93-.38,20.65s11,26.45,12.74,31.47,2.12,10.43,1.54,12.94-4.82,6.17-6.37,10.23-1,9.65,1,10.62,7.33-1,9.65-4.25,2.32-7.72,3.28-10.62,2.13-4.83,2.32-6.76-.39-3.66-.39-6,1.93-36.1,1.93-36.1l1-17.57.77-3.67.77,3.67,1,17.57s1.93,33.78,1.93,36.1-.58,4.05-.39,6,1.35,3.86,2.32,6.76,1,7.34,3.28,10.62,7.72,5.21,9.65,4.25,2.51-6.57,1-10.62-5.79-7.72-6.37-10.23-.19-7.92,1.54-12.94,10-23.74,12.74-31.47.58-13.7-.38-20.65a64,64,0,0,1,.19-16c.19-.77,14.87-21.81,16.8-39.38S414.1,228,414.1,228l.77-6.18s1.55,1.35,4.25,6.18S437.84,249.57,439,251.7s-.19,5,.78,8.68,2.5,4.83,4.05,7.15,3.47,4.63,4.63,4.05-2.51-6.37-2.51-6.37,5.79,8.49,8.3,9.65S460.82,276.79,457.92,273.13Z" style="fill:#e5e5e5;stroke:#263238;stroke-linecap:round;stroke-linejoin:round"></path><path d="M414.26,228s.67-4.75.74-6.18c0,0,.27-3.58-1.75-11.36a55.61,55.61,0,0,0-6.05-14.13s2.86-4.42.67-15.55a22.81,22.81,0,0,0-11.6-15.55,52,52,0,0,0-11.09,5.13c-4.88,3.18-11.43,10.42-11.43,10.42s-6.56-7.24-11.43-10.42a52.16,52.16,0,0,0-11.1-5.13,22.84,22.84,0,0,0-11.6,15.55c-2.19,11.13.67,15.55.67,15.55a56,56,0,0,0-6.05,14.13c-2,7.78-1.74,11.36-1.74,11.36.07,1.43.73,6.18.73,6.18A54.77,54.77,0,0,0,329.85,242c6.45.37,18.78,1.71,27.93,6.57l.85.46a138.61,138.61,0,0,0,12.07,7.2,6.56,6.56,0,0,0,6.09,0,138.61,138.61,0,0,0,12.07-7.2l.86-.46c9.14-4.86,21.47-6.2,27.92-6.57A54.26,54.26,0,0,0,414.26,228Z" style="fill:#ECCB9A;stroke:#263238;stroke-linecap:round;stroke-linejoin:round"></path><path d="M335.62,231.61A96.48,96.48,0,0,0,350,240.4" style="fill:none;stroke:#263238;stroke-linecap:round;stroke-linejoin:round"></path><path d="M396.48,239.57c-.93.52-1.79,1-2.53,1.3" style="fill:none;stroke:#263238;stroke-linecap:round;stroke-linejoin:round"></path><path d="M409.7,231.14s-5.64,3.93-10.68,7" style="fill:none;stroke:#263238;stroke-linecap:round;stroke-linejoin:round"></path><path d="M344.93,196.32s17.45-.63,26.8-4C371.73,192.27,356.46,201,344.93,196.32Z" style="fill:#263238"></path><path d="M401.64,196.32s-17.45-.63-26.79-4C374.85,192.27,390.11,201,401.64,196.32Z" style="fill:#263238"></path><line x1="373.79" y1="305.03" x2="373.79" y2="310.01" style="fill:none;stroke:#263238;stroke-linecap:round;stroke-linejoin:round"></line><line x1="373.79" y1="257.6" x2="373.79" y2="299.72" style="fill:none;stroke:#263238;stroke-linecap:round;stroke-linejoin:round"></line><path d="M388.18,310.59s7.47-2,8.05-9.78" style="fill:none;stroke:#263238;stroke-linecap:round;stroke-linejoin:round"></path><path d="M359.7,310.59s-7.48-2-8.06-9.78" style="fill:none;stroke:#263238;stroke-linecap:round;stroke-linejoin:round"></path><path d="M359.37,119.36s-3.52-4.54-4.77-1.59,2.27,9.09,3.29,9.54a11.48,11.48,0,0,0,2.05.68Z" style="fill:#e5e5e5;stroke:#263238;stroke-linecap:round;stroke-linejoin:round"></path><path d="M387.56,119.61s3.52-4.54,4.77-1.59-2.27,9.08-3.29,9.54a12.58,12.58,0,0,1-2,.68Z" style="fill:#e5e5e5;stroke:#263238;stroke-linecap:round;stroke-linejoin:round"></path><path d="M389.23,113.8s-.45,15-1.13,18.85-6.71,9.19-9.32,10.44-5.79,2.27-10.67-1.47-7.62-6.25-8.53-9.77-1.35-19.75-1.35-19.75-.18-6.69,3.75-11.58C367.54,93.59,389.23,92.23,389.23,113.8Z" style="fill:#e5e5e5;stroke:#263238;stroke-linecap:round;stroke-linejoin:round"></path><path d="M368.68,120.83c0,1.07-.54,1.94-1.2,1.94s-1.2-.87-1.2-1.94.53-1.94,1.2-1.94S368.68,119.76,368.68,120.83Z" style="fill:#263238"></path><path d="M381.33,120.83c0,1.07-.54,1.94-1.2,1.94s-1.2-.87-1.2-1.94.53-1.94,1.2-1.94S381.33,119.76,381.33,120.83Z" style="fill:#263238"></path><path d="M369.83,133.39s4,3.74,9.14,0" style="fill:none;stroke:#263238;stroke-linecap:round;stroke-linejoin:round"></path><path d="M362,117.57s2-3.34,7.83-1.82" style="fill:none;stroke:#263238;stroke-linecap:round;stroke-linejoin:round;stroke-width:2px"></path><path d="M377.17,115.94s3.88-2.41,8.06,1.77" style="fill:none;stroke:#263238;stroke-linecap:round;stroke-linejoin:round;stroke-width:2px"></path><path d="M372.37,126.74s1.4,1.52,3.38-.23" style="fill:none;stroke:#263238;stroke-linecap:round;stroke-linejoin:round"></path><path d="M359.26,117.68l3.82-8.44.2,4.62H385l.41-5,4,9s2.81-3,1-10S381,95.16,374.94,94.36s-14.68,3.82-16.49,8.44S356.84,113.66,359.26,117.68Z" style="fill:#263238;stroke:#263238;stroke-linecap:round;stroke-linejoin:round"></path></g></svg>
