<svg xmlns="http://www.w3.org/2000/svg" viewBox="0 0 750 500"><g id="freepik--character-2--inject-35"><path d="M229.73,87.87a17.8,17.8,0,0,0-16.48,11.6c-4.87,12.07-2.09,20.66-1.39,25.3s-1.39,3.71-3.48,14.62a46.35,46.35,0,0,0,.23,19.27h48.74s2.79-7.2.23-19.73-3.94-10.45-3.71-17.87,5.18-13-1.62-23.21C243.89,85.31,229.73,87.87,229.73,87.87Z" style="fill:#263238;stroke:#263238;stroke-linecap:round;stroke-linejoin:round"></path><path d="M290.51,184.12c-2.94-4.3-16.43-19.55-20.92-25s-8.41-4.1-15.45-6.25S245.93,150.1,244,147s-.58-13.68-.58-13.68l-9.58.78-9.58-.78s1.37,10.55-.59,13.68-3.13,3.72-10.17,5.87-10.94.78-15.44,6.25-18,20.73-20.92,25-8.52,11.55-7.74,12.33,5,4.46,7.75,4.07,28.73-23.63,28.73-23.63a59.2,59.2,0,0,0,2,17.79c2.55,9,3.33,16,2.94,18.18s-3.91,6.26-5.48,13.49a161.9,161.9,0,0,0-2.54,21.31c-.19,3.72-2.93,12.91-2.74,29.72a127.83,127.83,0,0,0,3.33,28.54s.19.59-1,4.89-6.84,10.76-5.47,23.07,1.56,40.86,1.17,45.56-2,5.47-2.35,6.84-9,7.82-8.6,12.71,8.6,4.1,12.12-1.17,3.72-8.22,4.69-9.19,1.37-.39,2.55-6.26,2.73-15.84,6.25-29.13,7.24-21.7,8.61-31.09,1.95-17.4,1.95-17.4l8.21-46.53h4.69l8.22,46.53s.58,8,1.95,17.4,5.08,17.79,8.6,31.09,5.09,23.26,6.26,29.13,1.56,5.28,2.54,6.26,1.17,3.91,4.69,9.19,11.73,6.06,12.13,1.17-8.22-11.34-8.61-12.71-1.95-2.15-2.34-6.84-.2-33.24,1.17-45.56-4.3-18.77-5.47-23.07-1-4.89-1-4.89a127.52,127.52,0,0,0,3.32-28.54c.2-16.81-2.54-26-2.74-29.72a158.53,158.53,0,0,0-2.54-21.31c-1.56-7.23-5.08-11.34-5.47-13.49s.39-9.19,2.93-18.18a59.4,59.4,0,0,0,2-17.79s26.78,24,29.52,24.41,5.81-4.45,6.59-5.24S293.44,188.42,290.51,184.12Z" style="fill:#e5e5e5;stroke:#263238;stroke-linecap:round;stroke-linejoin:round"></path><path d="M262.35,226.35c-1.56-7.23-5.08-11.34-5.47-13.49s.39-9.19,2.93-18.18a52.93,52.93,0,0,0,1.69-9.19c-.15-1.17-.24-1.83-.24-1.83s-6-14.15-11.53-15.7-16.07,9.69-16.07,9.69-10.59-11.24-16.08-9.69-11.53,15.7-11.53,15.7l-.06.47a55.44,55.44,0,0,0,1.81,10.55c2.55,9,3.33,16,2.94,18.18s-3.91,6.26-5.48,13.49c-.71,3.28-1.25,7.2-1.66,10.86,7.84,6,27.1,21,27.1,21l.67.54.09-.54h4.69l.06.32.41-.32S256.36,242.79,264,237C263.59,233.4,263.05,229.57,262.35,226.35Z" style="fill:#ECCB9A;stroke:#263238;stroke-linecap:round;stroke-linejoin:round"></path><path d="M179.3,192.3s2.4,2.24,6,10.31,11.65,14.24,14.57,16.31L202.8,221s5.67-7.9,6.87-7.9a22.82,22.82,0,0,1,4.64,1.2c1.2.34,4.66,1.68,4.41,2.35s-1.87.17-1.87.17,2.46,1.19,2,1.78-2.28.68-2.28.68,1.43,1.69.5,2a6.56,6.56,0,0,1-2.45-.09s.76.93.34,1.19a6.53,6.53,0,0,1-3-.34c-.76-.26-2.2-1-3-.93s-2.37,4.23-4,5.75-3.38,1.53-4.4.85S185,217.19,182.92,215.07s-8.08-6.55-10.53-10.61c-2.29-3.79-5-6.83-3.18-9.62a43.14,43.14,0,0,1,4.65-5.59" style="fill:#e5e5e5;stroke:#263238;stroke-linecap:round;stroke-linejoin:round"></path><path d="M209.67,213.08s2-.85,3-1.44,1.77-2.2,1.77-.85-.25,2-.84,2.46l-.6.42Z" style="fill:#fff;stroke:#263238;stroke-linecap:round;stroke-linejoin:round"></path><path d="M216.85,216.8s-5.08-1.86-6.18-2" style="fill:none;stroke:#263238;stroke-linecap:round;stroke-linejoin:round"></path><path d="M216.52,219.26s-5.68-2.54-6.44-2.63" style="fill:none;stroke:#263238;stroke-linecap:round;stroke-linejoin:round"></path><path d="M214.57,221.12a33.29,33.29,0,0,0-5.08-2.37" style="fill:none;stroke:#263238;stroke-linecap:round;stroke-linejoin:round"></path><path d="M287.9,192.3s-2.4,2.24-6,10.31-11.65,14.24-14.57,16.31L264.4,221s-5.66-7.9-6.87-7.9a22.57,22.57,0,0,0-4.63,1.2c-1.21.34-4.67,1.68-4.41,2.35s1.86.17,1.86.17-2.46,1.19-1.95,1.78,2.29.68,2.29.68-1.44,1.69-.51,2a6.56,6.56,0,0,0,2.45-.09s-.76.93-.33,1.19,2.2-.09,3-.34,2.2-1,3-.93,2.37,4.23,4,5.75,3.39,1.53,4.4.85,15.65-10.45,17.68-12.57,8.08-6.55,10.53-10.61c2.3-3.79,5.05-6.83,3.18-9.62a43.14,43.14,0,0,0-4.65-5.59" style="fill:#e5e5e5;stroke:#263238;stroke-linecap:round;stroke-linejoin:round"></path><path d="M257.53,213.08s-2-.85-3-1.44-1.78-2.2-1.78-.85.25,2,.85,2.46l.59.42Z" style="fill:#fff;stroke:#263238;stroke-linecap:round;stroke-linejoin:round"></path><path d="M250.35,216.8s5.08-1.86,6.18-2" style="fill:none;stroke:#263238;stroke-linecap:round;stroke-linejoin:round"></path><path d="M250.69,219.26s5.67-2.54,6.43-2.63" style="fill:none;stroke:#263238;stroke-linecap:round;stroke-linejoin:round"></path><path d="M252.63,221.12a33.79,33.79,0,0,1,5.08-2.37" style="fill:none;stroke:#263238;stroke-linecap:round;stroke-linejoin:round"></path><path d="M245.69,118.34s3.16-4.07,4.28-1.43-2,8.15-2.95,8.55a10.7,10.7,0,0,1-1.84.61Z" style="fill:#e5e5e5;stroke:#263238;stroke-linecap:round;stroke-linejoin:round"></path><path d="M247.18,113.13s-1.32,13.44-1.93,16.9-5.09,8.24-7.43,9.36-5.19,2-9.57-1.32-5.9-5.6-6.71-8.76-2.14-17.7-2.14-17.7-.16-6,3.36-10.39C227.74,95,247.18,93.79,247.18,113.13Z" style="fill:#e5e5e5;stroke:#263238;stroke-linecap:round;stroke-linejoin:round"></path><path d="M220.42,118.12s-3.16-4.07-4.28-1.43,2,8.15,3,8.55a10.76,10.76,0,0,0,1.83.61Z" style="fill:#e5e5e5;stroke:#263238;stroke-linecap:round;stroke-linejoin:round"></path><path d="M220.42,118.12s14.65-7.74,18.6-16.33c0,0,1.16,6.27,3,9.52a25.64,25.64,0,0,0,4.41,5.57s3.48-2.32,1.63-8.59-4.88-12.07-11.61-13.23-16,2.79-18.33,8.59S220.42,118.12,220.42,118.12Z" style="fill:#263238;stroke:#263238;stroke-linecap:round;stroke-linejoin:round"></path><path d="M230.2,95.53s-.93-4.18,2.32-4.18,3.94,3.71,3.94,3.71S232.05,94.37,230.2,95.53Z" style="fill:#fff;stroke:#263238;stroke-linecap:round;stroke-linejoin:round"></path><path d="M228,118.86c0,1.11-.56,2-1.24,2s-1.25-.9-1.25-2,.56-2,1.25-2S228,117.75,228,118.86Z" style="fill:#263238"></path><path d="M241.13,118.86c0,1.11-.56,2-1.24,2s-1.25-.9-1.25-2,.56-2,1.25-2S241.13,117.75,241.13,118.86Z" style="fill:#263238"></path><path d="M231.75,125.21s-.58,1.08-.12,1.7a4.71,4.71,0,0,0,2.55,1.54c.7,0,2.08-1.7,2.08-1.7.35,0,.05-1.35-.42-1.77" style="fill:none;stroke:#263238;stroke-linecap:round;stroke-linejoin:round"></path><path d="M229.23,130.34s4.16,3.87,9.46,0" style="fill:none;stroke:#263238;stroke-linecap:round;stroke-linejoin:round"></path><path d="M222.87,115.51s1.34-2.29,6.31-1.91" style="fill:none;stroke:#263238;stroke-linecap:round;stroke-linejoin:round"></path><path d="M236.83,113.79a9,9,0,0,1,6.88,1.72" style="fill:none;stroke:#263238;stroke-linecap:round;stroke-linejoin:round"></path></g></svg>
