<svg xmlns="http://www.w3.org/2000/svg" viewBox="0 0 750 500"><g id="freepik--character-1--inject-35"><path d="M132.09,210.59a133.22,133.22,0,0,0-.94,14.11c.12,5.18,2.35,22.59,3.29,27.53s.83,17.89.83,17.89-4.59,6.23-4.59,7.29a33,33,0,0,1-.94,6.59c-.47,1.17-1.53,2.82-.83,3.17s2.36-.82,2.59-1.64A18.1,18.1,0,0,1,133,282.7s-.12,6.24-.24,7.42-1,3.53-1.88,4.11-2.12,2.47-.7,2.24,3.76-2.35,4.7-3.06,1.3-2,1.3-3.65a23.76,23.76,0,0,1,1.64-6.94c.83-2,2.36-10.47,2.12-12.47s4.24-30.7,4.12-36.47a75,75,0,0,0,.35-14.59A126.85,126.85,0,0,0,142.32,204" style="fill:#e5e5e5;stroke:#263238;stroke-linecap:round;stroke-linejoin:round"></path><path d="M132.39,214.1l-2.21-35.54s-8.63,15.86-10.44,19.28,4.42,13.25,8.63,25.09,6.23,26.9,3,40.76-15.45,33.12-15.66,34.93.21,1.6,2,7.83,5.82,15.86,6.63,25.29-5.62,34.13-4.42,41,4.82,12.24,6,17.26,1.21,10.64-2,12.65-5.22-.4-6.83-3.41-.4-9.64-1.61-15.66-1.8-11.85-2.81-17.47-5.22-20.68-5.22-20.68a53.52,53.52,0,0,1-.2,9.64c-.6,3.41-1,16.86,0,21.28s2.41,7.23-.4,10-1.81,4.41-3.41,8-4,5.22-8.23,7S87,403.21,89.83,397s8.83-13.85,9.23-14.86.6-2.41-.4-7.22S96.25,356.44,91,343.39s-2.21-30.92-1.6-38.75-3.93-14.66-7-20.53-9.89-19.49-9.79-34.77S75.61,227.41,79,218.4s9.11-16.65,8.62-20.08-3.14-8.91-5.88-13.51a58.11,58.11,0,0,1-4.4-9.4s-20.95,22.63-25,26-9.4-4-9.79-5.19,19-23.32,19.67-25.38,2.35-7.64,6.76-12.34,12.73-3.62,15.47-4.7,10.68-4.4,12.64-10.08a31.14,31.14,0,0,0,1.66-10.78l14.7.49s.4,13.65,3.21,16.26,15.86,7,18.27,7.83,8.43,2.81,9.23,10.44-2,16.47-1.4,17.67-.61,27.71-.61,27.71" style="fill:#e5e5e5;stroke:#263238;stroke-linecap:round;stroke-linejoin:round"></path><line x1="77.38" y1="175.41" x2="75.09" y2="170.8" style="fill:#fff;stroke:#263238;stroke-linecap:round;stroke-linejoin:round"></line><line x1="130.18" y1="178.56" x2="133.86" y2="170.99" style="fill:#fff;stroke:#263238;stroke-linecap:round;stroke-linejoin:round"></line><path d="M132.3,239.33a81,81,0,0,0-3.93-16.4c-4.21-11.84-10.44-21.68-8.63-25.09,1.15-2.17,5-9.33,7.73-14.29l0-.19s-6.53-16.15-11.17-18-12,9.45-12,9.45S95,162.75,90,166.35s-9.79,15.12-9.79,15.12l-.11.32c.49,1,1,2,1.64,3,2.74,4.6,5.39,10.08,5.88,13.51S82.47,209.39,79,218.4a99.61,99.61,0,0,0-4.66,14.14,25.36,25.36,0,0,1,7.59.12c8.76,1.37,21,19.75,21,19.75s8.59-14.08,17-16.66A11.69,11.69,0,0,1,132.3,239.33Z" style="fill:#ECCB9A;stroke:#263238;stroke-linecap:round;stroke-linejoin:round"></path><path d="M104.83,330.57c.37,3.25.63,5.47.67,5.84" style="fill:none;stroke:#263238;stroke-linecap:round;stroke-linejoin:round"></path><path d="M102.92,252.41s-2.23,36.42-1.54,45.35c.43,5.58,1.87,18.76,2.92,28.19" style="fill:none;stroke:#263238;stroke-linecap:round;stroke-linejoin:round"></path><path d="M53,192.3s2.41,2.24,6,10.31,11.64,14.24,14.56,16.31L76.47,221s5.67-7.9,6.87-7.9a22.49,22.49,0,0,1,4.64,1.2c1.2.34,4.66,1.68,4.41,2.35s-1.86.17-1.86.17,2.45,1.19,2,1.78-2.29.68-2.29.68,1.44,1.69.51,2a6.62,6.62,0,0,1-2.46-.09s.76.93.34,1.19-2.2-.09-3-.34-2.2-1-3-.93-2.37,4.23-4,5.75-3.39,1.53-4.41.85S58.63,217.19,56.6,215.07s-8.08-6.55-10.54-10.61c-2.29-3.79-5-6.83-3.18-9.62a42.81,42.81,0,0,1,4.66-5.59" style="fill:#e5e5e5;stroke:#263238;stroke-linecap:round;stroke-linejoin:round"></path><path d="M83.34,213.08s2-.85,3-1.44,1.78-2.2,1.78-.85-.26,2-.85,2.46l-.59.42Z" style="fill:#e5e5e5;stroke:#263238;stroke-linecap:round;stroke-linejoin:round"></path><path d="M90.53,216.8s-5.08-1.86-6.18-2" style="fill:none;stroke:#263238;stroke-linecap:round;stroke-linejoin:round"></path><path d="M90.19,219.26s-5.67-2.54-6.43-2.63" style="fill:none;stroke:#263238;stroke-linecap:round;stroke-linejoin:round"></path><path d="M88.24,221.12a33.29,33.29,0,0,0-5.08-2.37" style="fill:none;stroke:#263238;stroke-linecap:round;stroke-linejoin:round"></path><path d="M93.75,118.12s-3.15-4.07-4.27-1.43,2,8.15,3,8.55a10.46,10.46,0,0,0,1.83.61Z" style="fill:#e5e5e5;stroke:#263238;stroke-linecap:round;stroke-linejoin:round"></path><path d="M119,118.34s3.15-4.07,4.27-1.43-2,8.15-3,8.55a10.46,10.46,0,0,1-1.83.61Z" style="fill:#e5e5e5;stroke:#263238;stroke-linecap:round;stroke-linejoin:round"></path><path d="M120.52,113.13s-1.32,13.44-1.93,16.9-5.09,8.24-7.43,9.36-5.2,2-9.57-1.32-5.9-5.6-6.72-8.76-2.14-17.7-2.14-17.7-.16-6,3.36-10.39C101.08,95,120.52,93.79,120.52,113.13Z" style="fill:#e5e5e5;stroke:#263238;stroke-linecap:round;stroke-linejoin:round"></path><path d="M97.62,104.58s.92,4,7.33,8.25S119.6,117,119.6,117l-.51-1.93s4.58,2.54,5.81,2,.4-5,.4-5,2.24,4.08,2.75,3.26,2.34-7.84-.2-13.64S112.17,84,106,85.45,94,94.2,94,94.2s-3.36-.1-4.89,4.07-.61,8.35.81,10.18A12.34,12.34,0,0,1,92.23,115c.2,2.34.81,4.18,1.52,3.16s.31-1.93.71-2.75S99,111.81,97.62,104.58Z" style="fill:#263238;stroke:#263238;stroke-linecap:round;stroke-linejoin:round"></path><path d="M101.67,118.83c0,1.11-.56,2-1.25,2s-1.25-.91-1.25-2,.56-2,1.25-2S101.67,117.71,101.67,118.83Z" style="fill:#263238"></path><path d="M114.86,118.83c0,1.11-.56,2-1.25,2s-1.25-.91-1.25-2,.56-2,1.25-2S114.86,117.71,114.86,118.83Z" style="fill:#263238"></path><path d="M102.72,130.18s4.18,3.9,9.53,0" style="fill:none;stroke:#263238;stroke-linecap:round;stroke-linejoin:round"></path><path d="M110,117.67a12,12,0,0,0-.69,6.35c.69,3.08.18,3.77-1.54,3.43a3.87,3.87,0,0,1-2.4-1.38" style="fill:none;stroke:#263238;stroke-linecap:round;stroke-linejoin:round"></path><path d="M96.47,115.46s1.35-2.31,6.36-1.93" style="fill:none;stroke:#263238;stroke-linecap:round;stroke-linejoin:round"></path><path d="M110.53,113.72a9.08,9.08,0,0,1,6.93,1.74" style="fill:none;stroke:#263238;stroke-linecap:round;stroke-linejoin:round"></path></g></svg>
