<svg xmlns="http://www.w3.org/2000/svg" viewBox="0 0 750 500"><g id="freepik--character-4--inject-35"><path d="M553.88,119.22c-.32-3.7-4-10.14-4-10.14s2.58.8,3.22-.81-10.46-15.92-10.46-15.92c-11.42-10.78-21.75-8.69-21.75-8.69s-9.34-2.09-20.76,8.69c0,0-11.1,14.32-10.46,15.92s3.22.81,3.22.81-3.7,6.44-4,10.14,2.89,3.37,2.89,3.37,1.93,5.8,3.38,7.73,5.31.16,5.31.16.65,3.54,3.54,4.82a4.18,4.18,0,0,0,4.67-.48s3.86,3.22,5.47,3.86a4.79,4.79,0,0,0,3.38-.16s2.25,1.29,3.38-.16a.67.67,0,0,1,1,0c1.12,1.45,3.38.16,3.38.16a4.77,4.77,0,0,0,3.37.16c1.61-.64,5.47-3.86,5.47-3.86a4.18,4.18,0,0,0,4.67.48c2.9-1.28,3.54-4.82,3.54-4.82s3.86,1.77,5.31-.16,3.38-7.73,3.38-7.73S554.21,122.92,553.88,119.22Z" style="fill:#263238;stroke:#263238;stroke-linecap:round;stroke-linejoin:round"></path><path d="M581.46,184c-8.47-8.39-20.34-19.42-24.84-24.9s-8.41-4.1-15.44-6.25S533,150.1,531,147s-.59-13.68-.59-13.68l-9.58.78-9.58-.78s1.37,10.55-.58,13.68-3.13,3.72-10.17,5.87-10.95.78-15.45,6.25S462,180.78,459.24,184c-3.37,4-6.87,8.92-6.09,9.71s5,4.46,7.75,4.07,36.18-24.7,36.18-24.7a53.08,53.08,0,0,0,1.66,15.61c1.1,3.88-.3,11.7-2.26,15-4,6.75-8.22,14.12-9.89,21.85-1.88,8.68-2.82,21.11-3,25.57s-.55,10.19,1.62,25.32c2.38,16.65,5.18,29.46,5.18,29.46s.2.59-1,4.89-6.85,10.76-5.48,23.07,1.56,40.86,1.17,45.56-1.95,5.47-2.34,6.84-9,7.82-8.6,12.71,8.6,4.1,12.12-1.17,3.71-8.22,4.69-9.19,1.37-.39,2.54-6.26,2.74-15.84,6.26-29.13,7.23-21.7,8.6-31.09,2-17.4,2-17.4l8.21-46.53h4.69l8.21,46.53s.59,8,2,17.4,5.08,17.79,8.6,31.09,5.08,23.26,6.25,29.13,1.57,5.28,2.55,6.26,1.17,3.91,4.69,9.19,11.73,6.06,12.12,1.17-8.21-11.34-8.6-12.71-2-2.15-2.35-6.84-.19-33.24,1.17-45.56-4.3-18.77-5.47-23.07-1-4.89-1-4.89,2.74-13.12,5.16-29.76,1.88-20.56,1.65-25-1.18-16.89-3-25.57c-1.36-6.28-4.4-12-7.36-17.66-2.53-4.84-6.46-13.33-4.79-19.23a53.08,53.08,0,0,0,1.66-15.61s34.29,27.23,37,27.62,5.81-4.45,6.59-5.23S585.16,187.65,581.46,184Z" style="fill:#c4c4c4;stroke:#263238;stroke-linecap:round;stroke-linejoin:round"></path><path d="M486,214.54s-3.13,1.78-3.76,3-.9,3-1.66,3.78-4-.52-3.89,1.3c.23,2.85,5.58,1.5,5.58,1.5s1.68-3.21,3-5.93S486,214.54,486,214.54Z" style="fill:#c4c4c4;stroke:#263238;stroke-linecap:round;stroke-linejoin:round"></path><path d="M476.78,226.54s-1-3.49-.1-3.6,1,.31,1,.31a11.17,11.17,0,0,0,1.54,1.44,9.86,9.86,0,0,0,2.77.62s1.24.92.11,1.54-1.44.82-2.26.62S477.19,227.26,476.78,226.54Z" style="fill:#c4c4c4;stroke:#263238;stroke-linecap:round;stroke-linejoin:round"></path><path d="M476.19,227.34s-1-3.5-.11-3.6,1,.31,1,.31a11.83,11.83,0,0,0,1.54,1.44,9.81,9.81,0,0,0,2.78.61s1.23.93.1,1.55-1.44.82-2.26.61S476.6,228.06,476.19,227.34Z" style="fill:#c4c4c4;stroke:#263238;stroke-linecap:round;stroke-linejoin:round"></path><path d="M475.78,228.57s-1-3.49-.11-3.6,1,.31,1,.31a11.17,11.17,0,0,0,1.54,1.44,9.91,9.91,0,0,0,2.78.62s1.23.92.1,1.54-1.44.82-2.26.62S476.19,229.29,475.78,228.57Z" style="fill:#c4c4c4;stroke:#263238;stroke-linecap:round;stroke-linejoin:round"></path><path d="M459.24,184c-1.74,1.85-7.09,7.87-6.72,11.62.12,1.15,4.7,7.24,10.64,11,6.55,4.15,19.64,10.51,19.64,10.51s-1.56,5.7-1.56,6.7a33.68,33.68,0,0,1-1,4.57s-.71,0-1.58.14l-2.45-1s-1.67.27-.15,1.82a16.35,16.35,0,0,0,3.52,2.46,2.79,2.79,0,0,0,2.25.32c1,0,3.78-2.19,3.78-3.18s3.2-8.55,3.78-10.94c.38-1.55.68-4.06-1.71-5.66-2-1.35-17.52-18-20.76-22.2" style="fill:#c4c4c4;stroke:#263238;stroke-linecap:round;stroke-linejoin:round"></path><path d="M554.71,214.54s3.13,1.78,3.76,3,.9,3,1.66,3.78,4-.52,3.89,1.3c-.23,2.85-5.59,1.5-5.59,1.5s-1.67-3.21-3-5.93S554.71,214.54,554.71,214.54Z" style="fill:#c4c4c4;stroke:#263238;stroke-linecap:round;stroke-linejoin:round"></path><path d="M563.91,226.54s1-3.49.11-3.6-1,.31-1,.31a11.17,11.17,0,0,1-1.54,1.44,9.91,9.91,0,0,1-2.78.62s-1.23.92-.1,1.54,1.44.82,2.26.62S563.5,227.26,563.91,226.54Z" style="fill:#c4c4c4;stroke:#263238;stroke-linecap:round;stroke-linejoin:round"></path><path d="M564.51,227.34s1-3.5.1-3.6-1,.31-1,.31a11.83,11.83,0,0,1-1.54,1.44,9.81,9.81,0,0,1-2.78.61s-1.23.93-.1,1.55,1.44.82,2.26.61S564.1,228.06,564.51,227.34Z" style="fill:#c4c4c4;stroke:#263238;stroke-linecap:round;stroke-linejoin:round"></path><path d="M564.92,228.57s1-3.49.11-3.6-1,.31-1,.31a11.83,11.83,0,0,1-1.54,1.44,9.91,9.91,0,0,1-2.78.62s-1.23.92-.1,1.54,1.44.82,2.26.62S564.51,229.29,564.92,228.57Z" style="fill:#c4c4c4;stroke:#263238;stroke-linecap:round;stroke-linejoin:round"></path><path d="M581.46,184c1.74,1.85,7.09,7.87,6.72,11.62-.12,1.15-4.71,7.24-10.64,11-6.55,4.15-19.64,10.51-19.64,10.51s1.56,5.7,1.56,6.7a33.68,33.68,0,0,0,1,4.57s.71,0,1.58.14l2.45-1s1.67.27.14,1.82a16.29,16.29,0,0,1-3.51,2.46,2.79,2.79,0,0,1-2.25.32c-1,0-3.78-2.19-3.78-3.18s-3.2-8.55-3.78-10.94c-.38-1.55-.68-4.06,1.71-5.66,2-1.35,17.52-18,20.75-22.2" style="fill:#c4c4c4;stroke:#263238;stroke-linecap:round;stroke-linejoin:round"></path><path d="M518.5,258.22h4.69s19.49-24.92,33.16-25.47c-.36-2.51-.77-5-1.25-7.18-1.36-6.28-4.4-12-7.36-17.66-2.53-4.84-6.46-13.33-4.79-19.23a52,52,0,0,0,1.7-13.94l-.47-1.67s-6.22-6.61-10.69-7.73-12.86,14.81-12.86,14.81-8.38-15.93-12.85-14.81-10.7,7.73-10.7,7.73a53.08,53.08,0,0,0,1.66,15.61c1.1,3.88-.3,11.7-2.26,15-4,6.75-8.22,14.12-9.89,21.85-.49,2.25-.91,4.74-1.27,7.29C485.32,232.86,495.84,232.91,518.5,258.22Z" style="fill:#ECCB9A;stroke:#263238;stroke-linecap:round;stroke-linejoin:round"></path><path d="M508.65,118.12s-3.15-4.07-4.27-1.43,2,8.15,2.95,8.55a10.46,10.46,0,0,0,1.83.61Z" style="fill:#c4c4c4;stroke:#263238;stroke-linecap:round;stroke-linejoin:round"></path><path d="M533.93,118.34s3.15-4.07,4.27-1.43-2,8.15-3,8.55a10.46,10.46,0,0,1-1.83.61Z" style="fill:#c4c4c4;stroke:#263238;stroke-linecap:round;stroke-linejoin:round"></path><path d="M535.42,113.13s-1.33,13.44-1.94,16.9-5.08,8.24-7.43,9.36-5.19,2-9.56-1.32-5.91-5.6-6.72-8.76-2.14-17.7-2.14-17.7-.16-6,3.36-10.39C516,95,535.42,93.79,535.42,113.13Z" style="fill:#c4c4c4;stroke:#263238;stroke-linecap:round;stroke-linejoin:round"></path><path d="M508.24,116.8l16.41-13.67s-1.28,2.73-.32,2.73,3.7-2.25,3.7-2.25,0,4.5.49,4.83,2.73-1.45,2.73-1.45l4,9.65a11.36,11.36,0,0,0,1.93-7.88c-.64-4.51-4.66-11.1-12.06-14s-16.74,2.57-18.34,8.85S506.8,116,508.24,116.8Z" style="fill:#263238;stroke:#263238;stroke-linecap:round;stroke-linejoin:round"></path><ellipse cx="515.52" cy="117.93" rx="1.18" ry="1.91" style="fill:#263238"></ellipse><ellipse cx="527.99" cy="117.93" rx="1.18" ry="1.91" style="fill:#263238"></ellipse><path d="M518.88,124s-.91,1.27-.18,2a8.1,8.1,0,0,0,4,1.82c1.09,0,3.28-2,3.28-2,.54,0,.07-1.59-.68-2.09" style="fill:none;stroke:#263238;stroke-linecap:round;stroke-linejoin:round"></path><path d="M517.84,130.31s4,3.69,9,0" style="fill:none;stroke:#263238;stroke-linecap:round;stroke-linejoin:round"></path><path d="M511.78,114.74s1.28-2.18,6-1.82" style="fill:none;stroke:#263238;stroke-linecap:round;stroke-linejoin:round"></path><path d="M525.08,113.1a8.58,8.58,0,0,1,6.55,1.64" style="fill:none;stroke:#263238;stroke-linecap:round;stroke-linejoin:round"></path></g></svg>
