<svg viewBox="0 -3.5 43 43" xmlns="http://www.w3.org/2000/svg" fill="#000000"><g id="SVGRepo_bgCarrier" stroke-width="0"></g><g id="SVGRepo_tracerCarrier" stroke-linecap="round" stroke-linejoin="round"></g><g id="SVGRepo_iconCarrier"> <g transform="translate(-1020.977 -298.86)"> <path d="M1047.663,318.013a8.265,8.265,0,0,0,1.275-6.8,7.175,7.175,0,0,0-4.745-5.349c-4.71-1.44-8.974,2.428-8.974,7.395a8.075,8.075,0,0,0,1.485,4.712,2.165,2.165,0,0,1-.513,3.121,14.588,14.588,0,0,0-7.045,11.541c-.075.826.511,1.728,1.263,1.728h23.579c.753,0,1.339-.9,1.264-1.728a14.437,14.437,0,0,0-7-11.427A2.279,2.279,0,0,1,1047.663,318.013Z" fill="none" stroke="#000000" stroke-linecap="round" stroke-linejoin="round" stroke-width="1.8920000000000001"></path> <line x2="8" transform="translate(1021.477 329.36)" stroke-width="1.8920000000000001" stroke="#000000" stroke-linecap="round" stroke-linejoin="round" fill="none"></line> <line x2="8" transform="translate(1055.477 329.36)" stroke-width="1.8920000000000001" stroke="#000000" stroke-linecap="round" stroke-linejoin="round" fill="none"></line> <line x2="11" transform="translate(1021.477 323.36)" stroke-width="1.8920000000000001" stroke="#000000" stroke-linecap="round" stroke-linejoin="round" fill="none"></line> <line x2="12" transform="translate(1051.477 323.36)" stroke-width="1.8920000000000001" stroke="#000000" stroke-linecap="round" stroke-linejoin="round" fill="none"></line> <line x2="14" transform="translate(1021.477 317.36)" stroke-width="1.8920000000000001" stroke="#000000" stroke-linecap="round" stroke-linejoin="round" fill="none"></line> <line x2="15" transform="translate(1048.477 317.36)" stroke-width="1.8920000000000001" stroke="#000000" stroke-linecap="round" stroke-linejoin="round" fill="none"></line> <line x2="13" transform="translate(1021.477 311.36)" stroke-width="1.8920000000000001" stroke="#000000" stroke-linecap="round" stroke-linejoin="round" fill="none"></line> <line x2="14" transform="translate(1049.477 311.36)" stroke-width="1.8920000000000001" stroke="#000000" stroke-linecap="round" stroke-linejoin="round" fill="none"></line> <path d="M1036.477,305.36" fill="none" stroke="#000000" stroke-linecap="round" stroke-linejoin="round" stroke-width="1.8920000000000001"></path> <path d="M1021.477,305.36" fill="none" stroke="#000000" stroke-linecap="round" stroke-linejoin="round" stroke-width="1.8920000000000001"></path> <line x2="42" transform="translate(1021.477 299.36)" stroke-width="1.8920000000000001" stroke="#000000" stroke-linecap="round" stroke-linejoin="round" fill="none"></line> <path d="M1063.477,305.36" fill="none" stroke="#000000" stroke-linecap="round" stroke-linejoin="round" stroke-width="1.8920000000000001"></path> <path d="M1021.477,305.36" fill="none" stroke="#000000" stroke-linecap="round" stroke-linejoin="round" stroke-width="1.8920000000000001"></path> <line x2="42" transform="translate(1021.477 305.36)" stroke-width="1.8920000000000001" stroke="#000000" stroke-linecap="round" stroke-linejoin="round" fill="none"></line> </g> </g></svg>