<svg xmlns="http://www.w3.org/2000/svg" viewBox="0 0 750 500"><g id="freepik--character-5--inject-62"><path d="M680.08,100.13c-.86-3.86-4.88-6.35-7.74-8.69a3.68,3.68,0,0,0,3.09-4c-.21-1.57-11.3-13.22-16.54-11-5.47,2.37-5.71,4.5-5.71,4.5s-5.94-4.5-9.74-3.55-3.8,3.08-3.09,3.08a10.5,10.5,0,0,1,2.85,1.42s-6,2.64-8.09,4.52a2.15,2.15,0,0,0-1.15,2.7,3.64,3.64,0,0,0,3.3,2.25s-7.84,5-8.8,8.76,1.43,3.32,1.43,3.32.24,13.74,1.9,15.39,3.57-.23,3.57-.23.47,5.68,3.8,9,2.38.71,2.38.71l14.26,6.87,12.66-6.87s-.84,2.6,2.12-.71,3.37-9,3.37-9,1.69,1.89,3.17.23,1.69-15.39,1.69-15.39S680.92,103.92,680.08,100.13Z" style="fill:#263238;stroke:#263238;stroke-linecap:round;stroke-linejoin:round"></path><path d="M713.16,219.66c-.55-4.37-4-14.18-4-14.18l-3.27-19.09s-.14-12.81.14-15.95.68-9.54-3.14-15-15.27-6-15.27-6-6.95-2.86-12-5.58a19.41,19.41,0,0,1-7.36-7.09l-.82-11.32-11.18.12-11.19-.12-.82,11.32a19.41,19.41,0,0,1-7.36,7.09c-5,2.72-12,5.58-12,5.58s-11.45.55-15.27,6-3.41,11.86-3.13,15,.13,15.95.13,15.95l-3.27,19.09s-3.41,9.81-3.95,14.18-2.87,34.24-2.46,36.42,1.5,4.77,1.91,6.41,3,11.86,3.27,12.67,5.32,1.1,6.14,2.32,3.68-1.91,5-3.54,3.28-.41,3.82-3.14a20.5,20.5,0,0,0,.14-6.41c-.14-2.31-2.32-4.09-4.23-5.18s-5.45-1.63-5.59-8.59S617.16,225,618,219s0-13.64.27-14,6-16.08,6-16.08,2.73,7.63,3.41,10.36a12.37,12.37,0,0,0,1.23,2.78c2.21,4,5.14,19.34,3.9,23.24h47c-1.25-3.9,1.69-19.27,3.9-23.25a12.8,12.8,0,0,0,1.23-2.77c.68-2.73,3.4-10.36,3.4-10.36s5.73,15.67,6,16.08-.54,8,.27,14,10.64,24.69,10.5,31.64-3.68,7.5-5.59,8.59-4.09,2.87-4.22,5.18a20.48,20.48,0,0,0,.13,6.41c.55,2.73,2.46,1.5,3.82,3.14s4.23,4.77,5,3.54,5.87-1.5,6.14-2.32,2.86-11,3.27-12.67,1.5-4.23,1.91-6.41S713.7,224,713.16,219.66Z" style="fill:#ccc;stroke:#263238;stroke-linecap:round;stroke-linejoin:round"></path><line x1="631" y1="149.88" x2="645.36" y2="151.74" style="fill:none;stroke:#263238;stroke-linecap:round;stroke-linejoin:round"></line><line x1="682.44" y1="149.42" x2="666.68" y2="151.51" style="fill:none;stroke:#263238;stroke-linecap:round;stroke-linejoin:round"></line><polyline points="624.25 188.85 620.57 175.37 617.09 170.28" style="fill:none;stroke:#263238;stroke-linecap:round;stroke-linejoin:round"></polyline><polyline points="688.34 188.85 691.01 173.98 694.95 169.12" style="fill:none;stroke:#263238;stroke-linecap:round;stroke-linejoin:round"></polyline><path d="M625.2,180.93s5.8,4.41,8.58,5.1,13.9.93,19.46-3.71" style="fill:none;stroke:#263238;stroke-linecap:round;stroke-linejoin:round"></path><path d="M686.14,180.93s-5.79,4.41-8.57,5.1-13.9.93-19.46-3.71" style="fill:none;stroke:#263238;stroke-linecap:round;stroke-linejoin:round"></path><path d="M613.75,266.87s-2.89,2.89-3.49,5.09" style="fill:none;stroke:#263238;stroke-linecap:round;stroke-linejoin:round"></path><path d="M611.86,269.26s1-.3,1.49,1.2.68,3,0,3.48" style="fill:none;stroke:#263238;stroke-linecap:round;stroke-linejoin:round"></path><path d="M699.78,265.33s2.66,2.22,1.92,4.88" style="fill:none;stroke:#263238;stroke-linecap:round;stroke-linejoin:round"></path><path d="M698.45,272.87a6.82,6.82,0,0,1,.29-3.25c.59-1,2.81-1,2.81-1" style="fill:none;stroke:#263238;stroke-linecap:round;stroke-linejoin:round"></path><path d="M682,262c.36-15.6-2.2-36.73-2.2-36.73H632.73s-2.56,21.13-2.2,36.73,9.17,55.59,9.35,58.29-4,15.59-2,22.91,3.27,19.44,3.81,22.33.89,13.48.89,13.48-4,6.74-6.65,10.4-3.77,6.16-3.05,7.7,3.77,4.43,8.27,2.12,6.83-3.66,7.19-8.86,3.59-5,3.95-9.82-.18-7.12-.18-9.43S655,347.59,655,347.59l1.25-16.75,1.26,16.75s2.88,21.18,2.88,23.49-.54,4.62-.18,9.43,3.59,4.62,3.95,9.82,2.7,6.55,7.19,8.86,7.55-.58,8.27-2.12-.36-4.05-3-7.7-6.65-10.4-6.65-10.4.35-10.59.89-13.48,1.83-15,3.81-22.33-2.16-20.22-2-22.91S681.64,277.55,682,262Z" style="fill:#ccc;stroke:#263238;stroke-linecap:round;stroke-linejoin:round"></path><path d="M658.4,225.23H632.73s-2.56,21.13-2.2,36.73c0,1.68.18,3.55.39,5.53,3.92,2,11,5.08,25.28,1.5,0,0,12.95,5.27,25.14.74A73.82,73.82,0,0,0,682,262c.36-15.6-2.2-36.73-2.2-36.73Z" style="fill:#ECCB9A;stroke:#263238;stroke-linecap:round;stroke-linejoin:round"></path><line x1="656.2" y1="315.61" x2="656.2" y2="255.1" style="fill:none;stroke:#263238;stroke-linecap:round;stroke-linejoin:round"></line><line x1="656.2" y1="328.7" x2="656.2" y2="322.72" style="fill:none;stroke:#263238;stroke-linecap:round;stroke-linejoin:round"></line><path d="M651.62,250.28s2.29,4.16,5.82,5.4" style="fill:none;stroke:#263238;stroke-linecap:round;stroke-linejoin:round"></path><path d="M640.89,109.2s-2.51-3.39-3.27-.25,4,6.28,4,6.28Z" style="fill:#ccc;stroke:#263238;stroke-linecap:round;stroke-linejoin:round"></path><path d="M669.78,109.2s2.51-3.39,3.27-.25-4,6.28-4,6.28Z" style="fill:#ccc;stroke:#263238;stroke-linecap:round;stroke-linejoin:round"></path><path d="M640.33,98.41s1.27,22,2.72,25.54,7.91,8.42,9.66,9a16.63,16.63,0,0,0,6.15.1c.76-.24,7.88-5.65,8.8-8s3.05-25.58,3.05-25.58a13.64,13.64,0,0,0-8-10.18c-7.23-3.26-11.9-2.2-16.47,1.12A16.51,16.51,0,0,0,640.33,98.41Z" style="fill:#ccc;stroke:#263238;stroke-linecap:round;stroke-linejoin:round"></path><path d="M652.82,122.48a12.58,12.58,0,0,0,5-.1" style="fill:none;stroke:#263238;stroke-linecap:round;stroke-linejoin:round"></path><path d="M644.16,106.19s3.26-2.89,7.16-1.13" style="fill:none;stroke:#263238;stroke-linecap:round;stroke-linejoin:round"></path><path d="M666.89,106.19s-3.26-2.89-7.16-1.13" style="fill:none;stroke:#263238;stroke-linecap:round;stroke-linejoin:round"></path><path d="M662.86,111.06c-1,.41-2.1.19-2.37-.49s.35-1.56,1.39-2,2.1-.2,2.37.48S663.9,110.65,662.86,111.06Z" style="fill:#263238"></path><path d="M647.73,111.06c1,.41,2.1.19,2.37-.49s-.36-1.56-1.39-2-2.1-.2-2.37.48S646.69,110.65,647.73,111.06Z" style="fill:#263238"></path><path d="M653.49,116.9a2.78,2.78,0,0,0,1.92,1.23c1.09,0,1.5,0,2.05-1.1" style="fill:none;stroke:#263238;stroke-linecap:round;stroke-linejoin:round"></path><line x1="655.82" y1="156.15" x2="655.82" y2="178.18" style="fill:none;stroke:#263238;stroke-linecap:round;stroke-linejoin:round"></line><path d="M640.87,105.94,654,91.81s-5.94,9.67-2.47,9.17,11.89-5,11.89-5l6.36,13.17s2.56-9.21,2.32-12.68-12.4-12.39-18.84-11.65-12.39,6.45-13.88,11.9A10.77,10.77,0,0,0,640.87,105.94Z" style="fill:#263238;stroke:#263238;stroke-linecap:round;stroke-linejoin:round"></path></g></svg>
