<svg xmlns="http://www.w3.org/2000/svg" viewBox="0 0 750 500"><g id="freepik--character-3--inject-62"><path d="M431.75,213.63c-.55-2.28-4.17-22.85-4.45-27.7s.56-12,.56-17.14-3.61-10-8.06-14S394.43,143,392.31,139.16s-1.11-8.89-1.11-8.89l-12.82,1.39h-.16l-12.82-1.39s1,5-1.11,8.89-23,11.63-27.49,15.63-8.06,8.86-8.06,14,.83,12.28.55,17.14-3.89,25.42-4.44,27.7S319,228.77,321,240.19s.84,23.42,1.95,26.57,3.61,6.28,4.45,6.28,3.89,2.29,5.56,1.14,3.89-4.57,5.28-6.85,1.39-1.14-.28-5.43-5.28-7.42-5.28-9.14,4.73-21.13,4.73-21.13.83,14.85,2.22,26.27,9.73,43.7,9.73,43.7S351,307.89,351,309s-1.67,8.28-.84,15.71,6.4,16.85,8.9,27.7a164.7,164.7,0,0,1,3.61,23.42c.28,3.43-3.33,8.57-4.72,13.71s-1.67,7.14,1.11,8.86,8.06,2.28,10.29-.86,2.78-6,3.33-11.14,2.23-7.14,2.78-13.42.56-9.14.56-10.28-1.39-11.14.55-20.28a96.39,96.39,0,0,0,1.75-13.82A97.78,97.78,0,0,0,380,342.45c1.95,9.14.56,19.13.56,20.28s0,4,.56,10.28,2.22,8.28,2.78,13.42,1.11,8,3.33,11.14,7.51,2.57,10.29.86,2.5-3.71,1.11-8.86-5-10.28-4.73-13.71a166.76,166.76,0,0,1,3.62-23.42c2.5-10.85,8.06-20.28,8.89-27.7s-.83-14.57-.83-15.71,1.67-7.43,1.67-7.43,8.34-32.27,9.73-43.7,2.22-26.27,2.22-26.27S424,251.05,424,252.76s-3.62,4.86-5.28,9.14-1.67,3.14-.28,5.43,3.61,5.71,5.28,6.85,4.73-1.14,5.56-1.14,3.34-3.14,4.45-6.28,0-15.14,1.94-26.57S432.31,215.92,431.75,213.63Z" style="fill:#e5e5e5;stroke:#263238;stroke-linecap:round;stroke-linejoin:round"></path><path d="M338.21,217.91s14.58,8.28,40.4,7.88,40-6.5,40-6.5,1.92,20.46-1.6,38.61c0,0-9.5,15.22-38.8,9.13,0,0-26.59,5.51-38.64-9.13C339.58,257.9,335.65,229.93,338.21,217.91Z" style="fill:#ECCB9A;stroke:#263238;stroke-linecap:round;stroke-linejoin:round"></path><path d="M337.4,264.8a9.19,9.19,0,0,0-2.36,2.9" style="fill:none;stroke:#263238;stroke-linecap:round;stroke-linejoin:round"></path><path d="M336.31,266.61s1.52,0,1.35,1.3" style="fill:none;stroke:#263238;stroke-linecap:round;stroke-linejoin:round"></path><path d="M419.14,264.8a9.13,9.13,0,0,1,2.37,2.9" style="fill:none;stroke:#263238;stroke-linecap:round;stroke-linejoin:round"></path><path d="M420.23,266.61s-1.52,0-1.34,1.3" style="fill:none;stroke:#263238;stroke-linecap:round;stroke-linejoin:round"></path><path d="M363.45,114.2s-2.61-3.53-3.4-.26,4.19,6.55,4.19,6.55Z" style="fill:#e5e5e5;stroke:#263238;stroke-linecap:round;stroke-linejoin:round"></path><path d="M393.55,114.2s2.62-3.53,3.4-.26-4.18,6.55-4.18,6.55Z" style="fill:#e5e5e5;stroke:#263238;stroke-linecap:round;stroke-linejoin:round"></path><path d="M362.87,101.83s1.33,25.18,2.84,28.86,4.25,6.61,10.06,8.21a20.16,20.16,0,0,0,6.41.1,12.63,12.63,0,0,0,9.16-7.93c1-2.47,3.18-28.2,3.18-28.2a14.22,14.22,0,0,0-8.33-10.61c-7.54-3.39-12.4-2.29-17.17,1.16A17.3,17.3,0,0,0,362.87,101.83Z" style="fill:#e5e5e5;stroke:#263238;stroke-linecap:round;stroke-linejoin:round"></path><path d="M373.91,126.14s5.92,1.82,10.14.15" style="fill:none;stroke:#263238;stroke-linecap:round;stroke-linejoin:round"></path><path d="M365.78,110.46s3.71-3.29,8.14-1.29" style="fill:none;stroke:#263238;stroke-linecap:round;stroke-linejoin:round"></path><path d="M391.62,110.46s-3.71-3.29-8.14-1.29" style="fill:none;stroke:#263238;stroke-linecap:round;stroke-linejoin:round"></path><path d="M373.49,114.52c0,1.07-.58,1.93-1.29,1.93s-1.28-.86-1.28-1.93.57-1.92,1.28-1.92S373.49,113.46,373.49,114.52Z" style="fill:#263238"></path><path d="M387.34,114.52c0,1.07-.58,1.93-1.29,1.93s-1.28-.86-1.28-1.93.57-1.92,1.28-1.92S387.34,113.46,387.34,114.52Z" style="fill:#263238"></path><path d="M392.79,98.13a14.33,14.33,0,0,0-6.6-5.87c-7.54-3.39-12.4-2.29-17.17,1.16A17,17,0,0,0,365,97.64,47.64,47.64,0,0,0,392.79,98.13Z" style="fill:#263238;stroke:#263238;stroke-linecap:round;stroke-linejoin:round"></path><path d="M365,97.64s2.08,5.13,1.12,8.24a58.51,58.51,0,0,1-2.39,6.22l-.82-10.27A18,18,0,0,1,365,97.64Z" style="fill:#263238;stroke:#263238;stroke-linecap:round;stroke-linejoin:round"></path><path d="M392.45,97.64s-2.08,5.13-1.13,8.24a57.4,57.4,0,0,0,2.4,6.22l.82-10.27A18.51,18.51,0,0,0,392.45,97.64Z" style="fill:#263238;stroke:#263238;stroke-linecap:round;stroke-linejoin:round"></path><path d="M375.83,120s1.86,3.41,3.72,2.79a3.7,3.7,0,0,0,2.64-3" style="fill:none;stroke:#263238;stroke-linecap:round;stroke-linejoin:round"></path><path d="M341.51,175.48s-1.13,9.39,1.14,13.65c0,0-5.45,24.64-4.89,39.71" style="fill:none;stroke:#263238;stroke-linecap:round;stroke-linejoin:round"></path><path d="M329.16,206.2s-.85,8.82,2.57,10.24l3.41,1.43" style="fill:none;stroke:#263238;stroke-linecap:round;stroke-linejoin:round"></path><path d="M428.5,206.2s-.28,6.54-3.13,9.39S420,217.3,420,217.3" style="fill:none;stroke:#263238;stroke-linecap:round;stroke-linejoin:round"></path><path d="M342.65,189.13s-6.94-3.71-9.79-9.12" style="fill:none;stroke:#263238;stroke-linecap:round;stroke-linejoin:round"></path><path d="M414,189.13s6.5-3.14,9.07-9.12" style="fill:none;stroke:#263238;stroke-linecap:round;stroke-linejoin:round"></path><path d="M415.17,175.48s1.13,9.39-1.14,13.65c0,0,5.46,24.64,4.89,39.71" style="fill:none;stroke:#263238;stroke-linecap:round;stroke-linejoin:round"></path><line x1="378.02" y1="313.89" x2="378.02" y2="260.31" style="fill:none;stroke:#263238;stroke-linecap:round;stroke-linejoin:round"></line><line x1="378.02" y1="325.13" x2="378.02" y2="319.57" style="fill:none;stroke:#263238;stroke-linecap:round;stroke-linejoin:round"></line><path d="M369.51,256.11s2.13,2.71,7.72,4.2,9.46-5.52,9.46-5.52" style="fill:none;stroke:#263238;stroke-linecap:round;stroke-linejoin:round"></path><path d="M355.26,249.24c.87.39,1.81.77,2.81,1.15" style="fill:none;stroke:#263238;stroke-linecap:round;stroke-linejoin:round"></path><path d="M342.65,239.82s1.6,3.47,8.33,7.29" style="fill:none;stroke:#263238;stroke-linecap:round;stroke-linejoin:round"></path><path d="M414,239.82s-2.64,5.73-15.41,10.57" style="fill:none;stroke:#263238;stroke-linecap:round;stroke-linejoin:round"></path><path d="M360.85,153.41s11-.61,12.61-.61,3.67,1.62,3.67,1.62" style="fill:none;stroke:#263238;stroke-linecap:round;stroke-linejoin:round"></path><path d="M396.86,153.41s-11-.61-12.61-.61-3.67,1.62-3.67,1.62" style="fill:none;stroke:#263238;stroke-linecap:round;stroke-linejoin:round"></path><line x1="378.18" y1="180.62" x2="378.18" y2="184.54" style="fill:none;stroke:#263238;stroke-linecap:round;stroke-linejoin:round"></line><line x1="378.18" y1="162.26" x2="378.18" y2="176.44" style="fill:none;stroke:#263238;stroke-linecap:round;stroke-linejoin:round"></line><path d="M353.3,189.74s3.18.29,10.13-2.6" style="fill:none;stroke:#263238;stroke-linecap:round;stroke-linejoin:round"></path><path d="M401.32,189.74s-3.18.29-10.12-2.6" style="fill:none;stroke:#263238;stroke-linecap:round;stroke-linejoin:round"></path></g></svg>
