<svg xmlns="http://www.w3.org/2000/svg" viewBox="0 0 750 500"><g id="freepik--character-2--inject-62"><path d="M272.06,255.83C272.5,238.5,266.8,215,266.8,215H210.18s-5.7,23.48-5.26,40.81S216,307.6,216.25,310.59s-4.79,17.33-2.39,25.46,6.32,21.61,7,24.81,1.09,15,1.09,15-4.79,7.49-8.06,11.55-4.58,6.85-3.71,8.56,4.58,4.92,10,2.35,8.28-4.06,8.72-9.84,4.36-5.56,4.79-10.91-.21-7.91-.21-10.48S237,341,237,341l1.53-18.61L240,341s3.48,23.53,3.48,26.1-.65,5.13-.21,10.48,4.36,5.14,4.79,10.91,3.27,7.27,8.72,9.84,9.16-.64,10-2.35-.44-4.49-3.71-8.56-8.06-11.55-8.06-11.55.43-11.77,1.09-15,4.58-16.68,7-24.81-2.61-22.46-2.39-25.46S271.63,273.15,272.06,255.83Z" style="fill:#ccc;stroke:#263238;stroke-linecap:round;stroke-linejoin:round"></path><path d="M238.49,215H210.18s-5.7,23.48-5.26,40.81c0,1.87.22,3.94.48,6.15,4.75,2.23,15.63,5.64,33,1.66,0,0,18.06,5.85,32.85.82a74.84,74.84,0,0,0,.8-8.63C272.5,238.5,266.8,215,266.8,215Z" style="fill:#ECCB9A;stroke:#263238;stroke-linecap:round;stroke-linejoin:round"></path><line x1="238.41" y1="319.99" x2="238.41" y2="248.21" style="fill:none;stroke:#263238;stroke-linecap:round;stroke-linejoin:round"></line><path d="M232.86,242.85s2.77,4.62,7.06,6" style="fill:none;stroke:#263238;stroke-linecap:round;stroke-linejoin:round"></path><path d="M293.08,219.66c-.55-4.37-3.95-14.18-3.95-14.18l-3.6-20.09s-.13-12.18.13-15.15.65-9.07-3-14.25-14.51-5.7-14.51-5.7-6.61-2.72-11.4-5.31-6.39-8.21-6.39-8.21l-.82-11.32-11.19.12-11.19-.12-.81,11.32s-1.6,5.62-6.4,8.21-11.39,5.31-11.39,5.31-10.88.52-14.51,5.7-3.24,11.27-3,14.25.13,15.15.13,15.15l-3.59,20.09s-3.41,9.81-4,14.18-2.86,34.24-2.45,36.42,1.5,4.77,1.91,6.41,3,11.86,3.27,12.67,5.32,1.1,6.14,2.32,3.68-1.91,5-3.54,3.27-.41,3.82-3.14a20.48,20.48,0,0,0,.13-6.41c-.13-2.31-2.31-4.09-4.22-5.18s-5.46-1.63-5.59-8.59S201.41,225,202.23,219s0-13.64.27-14,5.44-17.21,5.44-17.21,1.19,9.11,1.43,13.3.51,8.28.51,8.28v6l27-.27h3l27,.27v-6s.18-5.52.49-9c.25-2.81,1.45-12.54,1.45-12.54s5.16,16.8,5.44,17.21-.55,8,.27,14,10.63,24.69,10.5,31.64-3.68,7.5-5.59,8.59-4.09,2.87-4.23,5.18a20.2,20.2,0,0,0,.14,6.41c.54,2.73,2.45,1.5,3.81,3.14s4.23,4.77,5.05,3.54,5.86-1.5,6.13-2.32,2.87-11,3.28-12.67,1.49-4.23,1.9-6.41S293.63,224,293.08,219.66Z" style="fill:#ccc;stroke:#263238;stroke-linecap:round;stroke-linejoin:round"></path><line x1="214.35" y1="150.71" x2="228" y2="152.47" style="fill:none;stroke:#263238;stroke-linecap:round;stroke-linejoin:round"></line><line x1="263.22" y1="150.27" x2="248.25" y2="152.25" style="fill:none;stroke:#263238;stroke-linecap:round;stroke-linejoin:round"></line><polyline points="207.94 187.72 204.44 174.92 201.14 170.08" style="fill:none;stroke:#263238;stroke-linecap:round;stroke-linejoin:round"></polyline><polyline points="268.83 187.72 271.36 173.6 275.1 168.98" style="fill:none;stroke:#263238;stroke-linecap:round;stroke-linejoin:round"></polyline><path d="M208.84,180.2s5.51,4.19,8.15,4.85,13.21.88,18.49-3.52" style="fill:none;stroke:#263238;stroke-linecap:round;stroke-linejoin:round"></path><path d="M260.52,184.26a9.72,9.72,0,0,1-1.93.79c-2.64.66-13.2.88-18.49-3.52" style="fill:none;stroke:#263238;stroke-linecap:round;stroke-linejoin:round"></path><path d="M266.74,180.2s-1.38,1.05-3.08,2.18" style="fill:none;stroke:#263238;stroke-linecap:round;stroke-linejoin:round"></path><path d="M198,266.87s-2.89,2.89-3.49,5.09" style="fill:none;stroke:#263238;stroke-linecap:round;stroke-linejoin:round"></path><path d="M196.11,269.26s1-.3,1.49,1.2.68,3,0,3.48" style="fill:none;stroke:#263238;stroke-linecap:round;stroke-linejoin:round"></path><path d="M279.7,265.33s2.66,2.22,1.92,4.88" style="fill:none;stroke:#263238;stroke-linecap:round;stroke-linejoin:round"></path><path d="M278.37,272.87a6.73,6.73,0,0,1,.3-3.25c.59-1,2.8-1,2.8-1" style="fill:none;stroke:#263238;stroke-linecap:round;stroke-linejoin:round"></path><path d="M223.73,113.24s-2.51-3.39-3.26-.25,4,6.28,4,6.28Z" style="fill:#ccc;stroke:#263238;stroke-linecap:round;stroke-linejoin:round"></path><path d="M252.62,113.24s2.51-3.39,3.27-.25-4,6.28-4,6.28Z" style="fill:#ccc;stroke:#263238;stroke-linecap:round;stroke-linejoin:round"></path><path d="M223.17,102.45s1.28,22,2.73,25.54,7.9,8.42,9.65,9a16.62,16.62,0,0,0,6.15.1c.76-.24,7.88-5.65,8.8-8s3.05-25.58,3.05-25.58a13.62,13.62,0,0,0-8-10.18c-7.23-3.26-11.9-2.2-16.47,1.12A16.51,16.51,0,0,0,223.17,102.45Z" style="fill:#ccc;stroke:#263238;stroke-linecap:round;stroke-linejoin:round"></path><path d="M233.73,126.43s5.27,1.38,8.92-.25" style="fill:none;stroke:#263238;stroke-linecap:round;stroke-linejoin:round"></path><path d="M227,110.23s3.26-2.89,7.16-1.13" style="fill:none;stroke:#263238;stroke-linecap:round;stroke-linejoin:round"></path><path d="M249.73,110.23s-3.26-2.89-7.16-1.13" style="fill:none;stroke:#263238;stroke-linecap:round;stroke-linejoin:round"></path><path d="M233.78,113.81c0,.93-.51,1.69-1.13,1.69s-1.13-.76-1.13-1.69.51-1.7,1.13-1.7S233.78,112.87,233.78,113.81Z" style="fill:#263238"></path><path d="M246,113.81c0,.93-.51,1.69-1.14,1.69s-1.13-.76-1.13-1.69.51-1.7,1.13-1.7S246,112.87,246,113.81Z" style="fill:#263238"></path><polyline points="240.35 112.61 240.74 122.08 235.91 121.69" style="fill:none;stroke:#263238;stroke-linecap:round;stroke-linejoin:round"></polyline><path d="M223.73,113.24l1.35-5.46s3.48-2.13,3.48-4.84-.38-6.57-.38-6.57,7.34,2.9,10,2.71A99.25,99.25,0,0,0,248.47,97s-.19,5.8.39,6.57,2.71,4.06,2.71,4.06l1.05,5.66,1.46-1.21s.77-11.6.77-12.37,1-2.32-1.35-6.38-12.57-9.86-16.82-8.89S222,92.12,221.6,95,223.73,113.24,223.73,113.24Z" style="fill:#263238;stroke:#263238;stroke-linecap:round;stroke-linejoin:round"></path><line x1="237.4" y1="156.15" x2="237.4" y2="178.18" style="fill:none;stroke:#263238;stroke-linecap:round;stroke-linejoin:round"></line></g></svg>
