<svg xmlns="http://www.w3.org/2000/svg" viewBox="0 0 750 500"><g id="freepik--character-4--inject-62"><path d="M562.36,237.52c1.79-11.79-2.31-23.84-2.31-23.84l-4.36-26.14s1-21-3.07-29.73-19.74-10.51-22.3-14.61S527,128.33,527,128.33l-10,1.8-9-1.8s-.77,10.77-3.33,14.87-19.22,5.89-23.32,14.61-3.08,29.73-3.08,29.73l-4.36,26.14s-4.1,12-2.3,23.84,2.82,23.58,3.07,24.6-.77,5.64.51,8.72,5.64,6.92,5.64,6.92l1.54,2.56s5.38,20.76,6.15,27.17-2.82,12.81-1.28,20.76,4.1,41.78,4.1,42.55,1,6.4,1,6.4S488,388,486.49,390.79s-.37,5.84,2.71,7.64,6.52,1.95,10.11-2.41,2.69-5,4.1-8.5c1-2.38,2-3.07,2-7.43s-.77-4.36-.77-9,4.87-32.87,6.15-44.66,1.54-21.28,1.54-21.28L517,269.56l4.62,35.62s.25,9.49,1.53,21.28,6.15,32.8,6.15,37.42,0,10.38,0,14.74a23.32,23.32,0,0,0,1.28,8.25c1.3,4.64,1.18,6.23,3.93,9.47,3.65,4.3,8.48,3.59,11.56,1.8s3-4.53,1.42-7.35-5.89-13.59-5.89-13.59,1-5.63,1-6.4,2.57-34.61,4.1-42.55-2.05-14.35-1.28-20.76,6.15-27.17,6.15-27.17l1.54-2.56s4.36-3.85,5.64-6.92.26-7.69.51-8.72S560.56,249.31,562.36,237.52Z" style="fill:#e5e5e5;stroke:#263238;stroke-linecap:round;stroke-linejoin:round"></path><path d="M485.78,226.48s31.58,3.65,61.9,0c0,0,3.49,14.28,3.65,18.25s.32,16.35.32,16.35l.15,6.19-33.49,6h-1.9L482,267.9l.15-9s-.47-9.37.32-13.49S485.78,226.48,485.78,226.48Z" style="fill:#ECCB9A;stroke:#263238;stroke-linecap:round;stroke-linejoin:round"></path><path d="M508.85,264.34s4.53,4.41,8.14,5.22,9.34-4.62,9.34-4.62" style="fill:none;stroke:#263238;stroke-linecap:round;stroke-linejoin:round"></path><line x1="495.3" y1="244.89" x2="503.19" y2="253.3" style="fill:none;stroke:#263238;stroke-linecap:round;stroke-linejoin:round"></line><line x1="531.06" y1="254.36" x2="536.32" y2="246.99" style="fill:none;stroke:#263238;stroke-linecap:round;stroke-linejoin:round"></line><path d="M500.71,152.53s10.87-.6,12.48-.6,3.62,1.61,3.62,1.61" style="fill:none;stroke:#263238;stroke-linecap:round;stroke-linejoin:round"></path><path d="M536.33,152.53s-10.87-.6-12.48-.6-3.62,1.61-3.62,1.61" style="fill:none;stroke:#263238;stroke-linecap:round;stroke-linejoin:round"></path><line x1="517.85" y1="161.3" x2="517.85" y2="183.34" style="fill:none;stroke:#263238;stroke-linecap:round;stroke-linejoin:round"></line><path d="M493.24,188.49s3.15.28,10-2.58" style="fill:none;stroke:#263238;stroke-linecap:round;stroke-linejoin:round"></path><path d="M540.75,188.49s-3.15.28-10-2.58" style="fill:none;stroke:#263238;stroke-linecap:round;stroke-linejoin:round"></path><path d="M490.6,168.46s-2.46,9.63-2.24,13.43a41.24,41.24,0,0,0,1.12,7.16s-2.91,28.65-3.35,35.14-4.26,16.78-4.26,30.65.52,25.48.52,25.48" style="fill:none;stroke:#263238;stroke-linecap:round;stroke-linejoin:round"></path><path d="M543,168.46s2.46,9.63,2.24,13.43a41.24,41.24,0,0,1-1.12,7.16s2.91,28.65,3.35,35.14,4.26,16.78,4.26,30.65-.17,25.48-.17,25.48" style="fill:none;stroke:#263238;stroke-linecap:round;stroke-linejoin:round"></path><path d="M482.71,216.35s4,6.62,3.07,10.13" style="fill:none;stroke:#263238;stroke-linecap:round;stroke-linejoin:round"></path><path d="M547.68,226.48s1-7.4,2.89-12" style="fill:none;stroke:#263238;stroke-linecap:round;stroke-linejoin:round"></path><path d="M503.17,113.24s-2.51-3.39-3.27-.25,4,6.28,4,6.28Z" style="fill:#e5e5e5;stroke:#263238;stroke-linecap:round;stroke-linejoin:round"></path><path d="M532.06,113.24s2.51-3.39,3.26-.25-4,6.28-4,6.28Z" style="fill:#e5e5e5;stroke:#263238;stroke-linecap:round;stroke-linejoin:round"></path><path d="M502.6,102.45s1.28,19.88,2.73,23.42,7.9,10.54,9.66,11.07a16.63,16.63,0,0,0,6.15.1c.76-.24,7.88-8.44,8.8-10.81s3-22.79,3-22.79a13.64,13.64,0,0,0-8-10.18c-7.24-3.26-11.9-2.2-16.48,1.12A16.59,16.59,0,0,0,502.6,102.45Z" style="fill:#e5e5e5;stroke:#263238;stroke-linecap:round;stroke-linejoin:round"></path><path d="M513.16,126.43s5.28,1.38,8.92-.25" style="fill:none;stroke:#263238;stroke-linecap:round;stroke-linejoin:round"></path><path d="M506.43,110.23s3.27-2.89,7.16-1.13" style="fill:none;stroke:#263238;stroke-linecap:round;stroke-linejoin:round"></path><path d="M529.17,110.23s-3.27-2.89-7.16-1.13" style="fill:none;stroke:#263238;stroke-linecap:round;stroke-linejoin:round"></path><path d="M513.22,113.81c0,.93-.51,1.69-1.13,1.69s-1.13-.76-1.13-1.69.5-1.7,1.13-1.7S513.22,112.87,513.22,113.81Z" style="fill:#263238"></path><path d="M525.4,113.81c0,.93-.51,1.69-1.13,1.69s-1.13-.76-1.13-1.69.51-1.7,1.13-1.7S525.4,112.87,525.4,113.81Z" style="fill:#263238"></path><path d="M508.82,103.33s-.3,5.11,1.65,4.51,8.11-6,8.11-6-.3,5.41.9,4.35,3.31-6.16,3.31-6.16,1.5,7.37,3,5.86a11,11,0,0,0,2.25-3.9s1.8,6.31,2.71,7.81a12.76,12.76,0,0,1,1.3,3.45l2.6-2.1a12.6,12.6,0,0,0,.45-2.85c-.15-.45,2-.15,1.81-2.11s-3.31-8-3.31-8,1.8.15.6-2.56-8.41-8-14-8.86S506.13,88,501.6,94c-3.25,4.28-2.1,7.82-1.5,8.12,0,0-.6,3.9.15,4.35l.75.45,2.17,6.31,2.19-6.31S506.71,107.84,508.82,103.33Z" style="fill:#263238;stroke:#263238;stroke-linecap:round;stroke-linejoin:round"></path><path d="M520.54,111.29s-1.21,5.56-.9,7.82.9,4.2-.91,4.5-2.55-.15-3.15-2.25" style="fill:none;stroke:#263238;stroke-linecap:round;stroke-linejoin:round"></path></g></svg>
